<svg width="14" height="14" viewBox="0 0 14 14" fill="none" xmlns="http://www.w3.org/2000/svg">
<path d="M13.6341 6.05393L12.1516 4.57139C12.0304 4.4536 11.8678 4.38823 11.6989 4.38942C11.5299 4.39061 11.3682 4.45827 11.2488 4.57775C11.1293 4.69724 11.0617 4.85895 11.0606 5.0279C11.0594 5.19685 11.1249 5.35946 11.2427 5.48055L12.04 6.27787H8.95845C8.87249 6.27536 8.78691 6.29012 8.70676 6.32129C8.6266 6.35245 8.55352 6.39938 8.49183 6.45929C8.43014 6.51921 8.3811 6.59089 8.34762 6.6701C8.31413 6.74931 8.29688 6.83443 8.29688 6.92042C8.29688 7.00642 8.31413 7.09154 8.34762 7.17075C8.3811 7.24996 8.43014 7.32164 8.49183 7.38156C8.55352 7.44147 8.6266 7.4884 8.70676 7.51956C8.78691 7.55073 8.87249 7.56549 8.95845 7.56298H12.0687L11.2714 8.36058C11.2117 8.42025 11.1644 8.4911 11.1321 8.56907C11.0998 8.64705 11.0832 8.73062 11.0832 8.81501C11.0832 8.89941 11.0998 8.98298 11.1321 9.06096C11.1644 9.13893 11.2117 9.20978 11.2714 9.26945C11.3919 9.38998 11.5554 9.45769 11.7258 9.45769C11.8102 9.45769 11.8938 9.44107 11.9718 9.40877C12.0497 9.37647 12.1206 9.32913 12.1803 9.26945L13.6341 7.81563C13.7498 7.69993 13.8416 7.56256 13.9042 7.41137C13.9669 7.26019 13.9991 7.09815 13.9991 6.93451C13.9991 6.77086 13.9669 6.60882 13.9042 6.45764C13.8416 6.30645 13.7498 6.16909 13.6341 6.05338V6.05393Z" fill="black"/>
<path d="M10.0834 8.38689C9.91988 8.38969 9.76317 8.45287 9.64343 8.56428C9.52369 8.67569 9.44939 8.82745 9.43484 8.99035C9.41105 9.30343 9.38726 9.4087 9.35773 9.64193C9.31488 9.9542 9.1708 10.2438 8.94759 10.4663C8.72469 10.6925 8.4343 10.8401 8.12019 10.8869L8.1016 10.8893C7.9102 10.9167 7.73247 10.9407 7.54736 10.9626C7.58345 10.244 7.60642 9.41335 7.61216 8.58896C7.62255 7.22564 7.58482 5.81912 7.51017 4.91134C7.45427 4.27656 7.26583 3.66056 6.95702 3.10315C6.6516 2.5541 6.25458 2.12263 5.83843 1.89432L5.82557 1.88748C5.46273 1.68897 5.1554 1.52081 4.62495 1.29715C4.8508 1.28977 5.07064 1.28512 5.36321 1.28512C6.805 1.29086 7.31522 1.37754 8.02422 1.48445L8.04172 1.48718C8.35406 1.54045 8.64098 1.69278 8.86009 1.92166C9.08268 2.14855 9.22794 2.43994 9.27516 2.75425C9.3509 3.30357 9.41187 3.93 9.44851 4.83423C9.46191 5.17492 9.74928 5.453 10.0987 5.4612C10.458 5.4694 10.7427 5.19625 10.7262 4.85391C10.6841 3.96472 10.6144 3.30631 10.5234 2.71187C10.4339 2.13029 10.1373 1.56073 9.70034 1.10575C9.2634 0.650761 8.70752 0.334951 8.12839 0.233509L8.11062 0.230501C7.40353 0.112926 6.84738 0.00765602 5.36539 0C3.88368 0.00874973 3.36252 0.112379 2.65434 0.229407L2.63657 0.232688C2.05745 0.333857 1.5002 0.650488 1.06271 1.10465C0.625225 1.55882 0.329101 2.12919 0.239689 2.71078C0.107076 3.56688 0.0111027 4.90723 0.000985801 6.21669C-0.00913108 7.52614 0.0592262 8.86485 0.178168 9.71822C0.231148 10.0818 0.357578 10.4307 0.549758 10.7439C0.603077 10.8532 0.660497 10.9626 0.722019 11.067C1.04111 11.6114 1.45098 12.053 1.87316 12.3008L1.88601 12.3084C2.4006 12.6092 2.80856 12.8523 3.87192 13.3064C4.93228 13.7549 5.3211 13.8451 5.81682 13.9627L5.82913 13.9657C6.23435 14.06 6.61688 13.9299 6.91328 13.6058C7.20038 13.2919 7.39424 12.8107 7.4574 12.2499C7.71743 12.219 7.94957 12.184 8.20085 12.1449L8.2189 12.1419C8.80923 12.0498 9.37468 11.7449 9.81327 11.3011C10.2518 10.8573 10.5428 10.2952 10.6229 9.71521C10.6573 9.4642 10.6841 9.34089 10.7109 9.01851C10.7402 8.66771 10.452 8.37951 10.0834 8.38689Z" fill="black"/>
</svg>
